<svg width="42" height="42" viewBox="0 0 42 42" fill="none" xmlns="http://www.w3.org/2000/svg">
<g clip-path="url(#clip0_118_3173)">
<path d="M20.9998 0C14.9098 0 7.74481 1.449 1.62725 4.60031L0.677002 5.08463V6.16481C0.677002 12.6591 0.799066 29.9893 20.1033 41.4593L20.9998 42L21.8962 41.4593C41.2004 29.9893 41.3225 12.6591 41.3225 6.16481V5.09906L40.3788 4.60687C34.3361 1.44112 27.0898 0 20.9998 0ZM20.9998 3.52144C26.2091 3.52144 32.5248 4.85362 37.7538 7.36969C37.7394 14.1724 37.0228 27.5704 20.9998 37.6937C4.97675 27.5704 4.25225 14.1724 4.24569 7.36969C9.55738 4.84837 15.7904 3.52144 20.9998 3.52144Z" fill="#080708"/>
<g clip-path="url(#clip1_118_3173)">
<path d="M21 8C17.52 8 13.4257 8.828 9.92996 10.6287L9.38696 10.9055V11.5227C9.38696 15.2337 9.45671 25.1367 20.4877 31.691L21 32L21.5122 31.691C32.5432 25.1367 32.613 15.2337 32.613 11.5227V10.9137L32.0737 10.6325C28.6207 8.8235 24.48 8 21 8ZM21 10.0122C23.9767 10.0122 27.5857 10.7735 30.5737 12.2112C30.5655 16.0985 30.156 23.7545 21 29.5392C11.844 23.7545 11.43 16.0985 11.4262 12.2112C14.4615 10.7705 18.0232 10.0122 21 10.0122ZM26.0347 15.578C25.773 15.5863 25.551 15.7498 25.4257 15.875L20.0467 21.4573L18.0307 19.043C17.0775 17.9383 15.7695 18.7933 15.4687 18.992L20.145 24.422L26.5312 15.773C26.3985 15.6448 26.2185 15.5743 26.0347 15.578Z" fill="#080708"/>
</g>
</g>
<defs>
<clipPath id="clip0_118_3173">
<rect width="42" height="42" fill="white"/>
</clipPath>
<clipPath id="clip1_118_3173">
<rect width="24" height="24" fill="white" transform="translate(9 8)"/>
</clipPath>
</defs>
</svg>
